<?xml version="1.0" encoding="utf-8"?>
<!-- Generator: Adobe Illustrator 25.0.0, SVG Export Plug-In . SVG Version: 6.00 Build 0)  -->
<svg version="1.1" id="Camada_1" xmlns="http://www.w3.org/2000/svg" xmlns:xlink="http://www.w3.org/1999/xlink" x="0px" y="0px"
	 viewBox="0 0 16 16" style="enable-background:new 0 0 16 16;" xml:space="preserve">
<style type="text/css">
	.st0{fill:#FFFFFF;}
</style>
<path class="st0" d="M8,0C3.6,0,0,3.6,0,8s3.6,8,8,8s8-3.6,8-8S12.4,0,8,0z M10.8,11.2c-0.1,0.6-0.3,0.8-0.5,0.8
	c-0.4,0-0.7-0.2-1-0.4c-0.1-0.1-0.2-0.1-0.3-0.2C8.6,11.2,8.3,11,8,10.8c-0.3-0.2-0.5-0.4-0.8-0.6c-0.7-0.5-0.4-0.7,0-1.1
	C7.2,9.1,7.3,9,7.4,8.9c0,0,0.2-0.2,0.3-0.3C8.3,8,9.5,6.9,9.6,6.8c0,0,0-0.1,0-0.1c0,0-0.1,0-0.2,0C9.3,6.6,8.2,7.4,6,8.9
	C5.7,9.1,5.4,9.2,5.1,9.2C4.8,9.2,4.3,9,3.9,8.9l-0.2,0C3.3,8.7,3,8.6,3,8.4c0-0.1,0.2-0.3,0.6-0.4c2.3-1,3.9-1.7,4.7-2
	c2.2-0.9,2.7-1.1,3-1.1c0.1,0,0.2,0,0.3,0.1C11.6,5,11.7,5,11.7,5.1c0,0.1,0,0.2,0,0.3C11.6,6.7,11.1,9.8,10.8,11.2z"/>
<path d="M11.7,5.4c-0.1,1.3-0.6,4.3-0.9,5.8c-0.1,0.6-0.3,0.8-0.5,0.8c-0.4,0-0.7-0.2-1-0.4c-0.1-0.1-0.2-0.1-0.3-0.2
	C8.6,11.2,8.3,11,8,10.8c-0.3-0.2-0.5-0.4-0.8-0.6c-0.7-0.5-0.4-0.7,0-1.1C7.2,9.1,7.3,9,7.4,8.9c0,0,0.2-0.2,0.3-0.3
	C8.3,8,9.5,6.9,9.6,6.8c0,0,0-0.1,0-0.1c0,0-0.1,0-0.2,0C9.3,6.6,8.2,7.4,6,8.9C5.7,9.1,5.4,9.2,5.1,9.2C4.8,9.2,4.3,9,3.9,8.9
	l-0.2,0C3.3,8.7,3,8.6,3,8.4c0-0.1,0.2-0.3,0.6-0.4c2.3-1,3.9-1.7,4.7-2c2.2-0.9,2.7-1.1,3-1.1c0.1,0,0.2,0,0.3,0.1
	C11.6,5,11.7,5,11.7,5.1C11.7,5.2,11.7,5.3,11.7,5.4z"/>
</svg>
